<?xml version="1.0" standalone="no"?>
<!DOCTYPE svg PUBLIC "-//W3C//DTD SVG 20010904//EN"
 "http://www.w3.org/TR/2001/REC-SVG-20010904/DTD/svg10.dtd">
<svg version="1.0" xmlns="http://www.w3.org/2000/svg"
 width="170.000000pt" height="170.000000pt" viewBox="0 0 170.000000 170.000000"
 preserveAspectRatio="xMidYMid meet">
<metadata>
Created by potrace 1.13, written by Peter Selinger 2001-2015
</metadata>
<g transform="translate(0.000000,170.000000) scale(0.099415,-0.099415)"
fill="#000000" stroke="none">
<path fill="#000000" stroke="none" d="M338 1428 c-14 -11 -17 -39 -20 -195
l-3 -181 -41 -20 c-28 -14 -45 -17 -57 -10 -10 5 -34 8 -54 6 -36 -3 -37 -3
-39 -52 -2 -28 1 -56 7 -63 15 -18 -38 -97 -73 -111 -33 -12 -37 -41 -8 -67
11 -10 20 -24 20 -30 0 -7 9 -24 20 -38 24 -30 25 -55 5 -81 -23 -30 -18 -69
15 -114 34 -47 52 -51 120 -27 61 21 90 19 225 -19 162 -45 279 -60 428 -54
296 13 469 146 470 361 0 44 -6 87 -16 109 -19 44 -82 115 -138 154 -23 15
-45 38 -50 51 -7 20 -15 23 -63 23 -75 0 -86 6 -86 46 0 44 -30 63 -116 74
-46 6 -72 14 -85 29 -30 32 -93 44 -189 37 -47 -4 -96 -8 -110 -9 -24 -2 -25
0 -33 83 -5 47 -12 89 -17 94 -15 15 -94 18 -112 4z"/>
<path fill="#ffffff" stroke="none" d="M425 1398 c2 -7 8 -54 13 -105 l8 -92
-26 -6 c-14 -3 -33 -8 -42 -11 -16 -5 -18 5 -18 105 0 96 2 110 18 114 31 8
43 7 47 -5z"/>
<path fill="#ffffff" stroke="none" d="M770 1200 c29 -15 26 -17 -55 -29 -57
-8 -55 -9 46 -10 58 0 127 -4 153 -7 l46 -7 0 -42 0 -43 -47 -7 c-27 -4 -111
-13 -188 -20 -140 -13 -140 -13 121 -8 l261 6 75 -56 c60 -44 81 -67 103 -110
43 -89 29 -109 -86 -131 l-37 -6 -7 46 c-12 79 -23 94 -18 22 7 -80 19 -73
-172 -87 l-130 -10 153 5 c166 5 164 6 142 -52 -6 -15 -8 -29 -6 -31 3 -3 11
17 19 43 l14 48 74 12 c40 7 75 11 77 9 11 -11 -34 -110 -69 -149 -127 -144
-474 -179 -799 -81 -164 49 -182 51 -222 27 -36 -23 -98 -30 -98 -12 0 15 38
82 51 91 9 5 6 15 -10 35 -12 15 -24 44 -27 66 -6 34 -10 38 -36 38 -17 0 -27
4 -23 10 3 6 15 10 25 10 13 0 25 12 33 33 8 17 24 41 36 51 25 22 26 34 7 55
-8 10 -12 29 -9 49 5 28 9 32 34 32 22 0 29 -5 29 -19 0 -18 6 -16 57 15 31
19 61 34 65 34 4 0 5 24 2 54 -7 60 -2 67 66 80 19 3 44 16 56 27 13 12 38 25
56 30 49 12 209 5 238 -11z"/>
<path fill="#000000" stroke="none" d="M800 1120 c0 -5 5 -10 11 -10 5 0 7 5
4 10 -3 6 -8 10 -11 10 -2 0 -4 -4 -4 -10z"/>
<path fill="#000000" stroke="none" d="M870 1119 c0 -5 5 -7 10 -4 6 3 10 8
10 11 0 2 -4 4 -10 4 -5 0 -10 -5 -10 -11z"/>
<path fill="#000000" stroke="none" d="M590 1110 c0 -5 5 -10 10 -10 6 0 10 5
10 10 0 6 -4 10 -10 10 -5 0 -10 -4 -10 -10z"/>
<path fill="#000000" stroke="none" d="M725 1110 c4 -6 11 -8 16 -5 14 9 11
15 -7 15 -8 0 -12 -5 -9 -10z"/>
<path fill="#000000" stroke="none" d="M288 924 c-26 -11 -38 -23 -38 -36 0
-33 18 -55 49 -61 l29 -6 -13 -39 c-17 -49 -6 -106 28 -140 63 -63 128 43 82
132 l-15 29 37 -7 c21 -3 44 -6 51 -6 9 0 10 -5 2 -19 -27 -52 -1 -139 50
-166 43 -22 65 -19 94 16 31 36 35 105 10 144 -15 23 -15 25 -1 25 9 0 28 5
42 12 21 9 25 18 25 55 0 80 6 78 -207 80 -153 2 -195 0 -225 -13z"/>
<path fill="#ffffff" stroke="none" d="M583 903 c103 -6 107 -7 107 -29 0 -38
-42 -58 -119 -57 -92 2 -263 31 -280 48 -12 12 -9 16 20 29 38 16 116 19 272
9z"/>
<path fill="#ffffff" stroke="none" d="M406 756 c7 -41 -6 -85 -29 -100 -23
-15 -37 7 -37 57 0 48 15 77 40 77 14 0 21 -9 26 -34z"/>
<path fill="#ffffff" stroke="none" d="M631 759 c27 -52 -12 -139 -62 -139
-46 0 -65 87 -28 134 26 33 73 36 90 5z"/>
<path fill="#000000" stroke="none" d="M525 880 c-56 -4 -73 -7 -55 -12 14 -4
41 -8 61 -8 27 0 39 -5 47 -22 11 -23 11 -23 11 4 1 14 7 28 14 31 26 9 -1 12
-78 7z"/>
<path fill="#000000" stroke="none" d="M177 812 c-34 -37 -16 -129 30 -159 53
-35 86 74 43 145 -22 36 -49 41 -73 14z"/>
<path fill="#ffffff" stroke="none" d="M238 750 c3 -48 -16 -88 -36 -76 -13 8
-16 83 -6 111 13 33 39 12 42 -35z"/>
<path fill="#000000" stroke="none" d="M1180 766 c0 -9 5 -16 10 -16 6 0 10 4
10 9 0 6 -4 13 -10 16 -5 3 -10 -1 -10 -9z"/>
<path fill="#000000" stroke="none" d="M880 739 c0 -5 5 -7 10 -4 6 3 10 8 10
11 0 2 -4 4 -10 4 -5 0 -10 -5 -10 -11z"/>
<path fill="#000000" stroke="none" d="M1524 1126 c-3 -8 11 -46 30 -85 51
-100 66 -168 66 -292 0 -123 -23 -229 -71 -327 -17 -35 -28 -66 -25 -70 18
-17 61 18 97 78 83 136 111 309 73 453 -37 145 -147 302 -170 243z"/>
<path fill="#000000" stroke="none" d="M1405 977 c68 -120 72 -321 9 -453 -28
-59 -29 -64 -11 -64 38 0 98 114 117 219 24 135 -48 341 -119 341 -19 0 -18
-2 4 -43z"/>
</g>
</svg>
